<?xml version="1.0" encoding="UTF-8"?>
<!-- Generated by Pixelmator Pro 3.6.1 -->
<svg width="100" height="100" viewBox="0 0 100 100" xmlns="http://www.w3.org/2000/svg">
    <path id="Path" fill="#ffffff" stroke="none" d="M 52.292519 69.5 L 70 69.5 C 70.82843 69.5 71.5 68.82843 71.5 68 C 71.5 67.17157 70.82843 66.5 70 66.5 L 52.292351 66.5 C 51.638702 64.194672 49.516762 62.5 47 62.5 C 44.487568 62.5 42.361713 64.191498 41.707481 66.5 L 30 66.5 C 29.17157 66.5 28.5 67.17157 28.5 68 C 28.5 68.82843 29.17157 69.5 30 69.5 L 41.707649 69.5 C 42.361298 71.805328 44.483238 73.5 47 73.5 C 49.512432 73.5 51.638287 71.808502 52.292519 69.5 Z M 67.292519 51.5 L 70 51.5 C 70.82843 51.5 71.5 50.828426 71.5 50 C 71.5 49.171574 70.82843 48.5 70 48.5 L 67.292351 48.5 C 66.638702 46.194672 64.516762 44.5 62 44.5 C 59.487568 44.5 57.361713 46.191494 56.707481 48.5 L 30 48.5 C 29.17157 48.5 28.5 49.171574 28.5 50 C 28.5 50.828426 29.17157 51.5 30 51.5 L 56.707649 51.5 C 57.361298 53.805328 59.483238 55.5 62 55.5 C 64.512436 55.5 66.63829 53.808506 67.292519 51.5 Z M 43.292519 33.5 L 70 33.5 C 70.82843 33.5 71.5 32.82843 71.5 32 C 71.5 31.17157 70.82843 30.5 70 30.5 L 43.292351 30.5 C 42.638702 28.194672 40.516762 26.5 38 26.5 C 35.487572 26.5 33.361717 28.191498 32.707481 30.5 L 30 30.5 C 29.17157 30.5 28.5 31.17157 28.5 32 C 28.5 32.82843 29.17157 33.5 30 33.5 L 32.707649 33.5 C 33.361298 35.805328 35.483238 37.5 38 37.5 C 40.512432 37.5 42.638287 35.808502 43.292519 33.5 Z"/>
</svg>
